<svg width="37" height="37" viewBox="0 0 37 37" fill="none" xmlns="http://www.w3.org/2000/svg">
<rect x="0.333374" y="0.380859" width="36" height="36" rx="18" fill="#006E80"/>
<path d="M24.3631 11.1242C25.1251 10.8579 25.8571 11.5899 25.5908 12.3519L21.1471 25.0494C20.8583 25.8729 19.7108 25.9194 19.3568 25.1222L17.2126 20.2982L20.2306 17.2794C20.3299 17.1728 20.384 17.0318 20.3815 16.886C20.3789 16.7403 20.3199 16.6013 20.2168 16.4982C20.1137 16.3951 19.9747 16.3361 19.829 16.3335C19.6832 16.331 19.5422 16.3851 19.4356 16.4844L16.4168 19.5024L11.5928 17.3582C10.7956 17.0034 10.8428 15.8567 11.6656 15.5679L24.3631 11.1242Z" fill="#FEFEFF"/>
</svg>
