<svg width="1440" height="1023" viewBox="0 0 1440 1023" fill="none" xmlns="http://www.w3.org/2000/svg" xmlns:xlink="http://www.w3.org/1999/xlink">
<g opacity="0.1">
<rect width="1440" height="1023" fill="url(#pattern0_890_11141)"/>
</g>
<defs>
<pattern id="pattern0_890_11141" patternUnits="userSpaceOnUse" viewBox="-1653.71 1080.29 286.58 143.29" width="67.863734639498844%" height="47.763332297594488%" x="445.495" y="236.995" patternContentUnits="objectBoundingBox">
<g id="pattern0_890_11141_inner">
<rect x="-1797" y="937" width="161" height="161" fill="#F9F9F9"/>
<path d="M-1688.11 967.799C-1682.64 969.045 -1679.23 974.578 -1680.51 980.174C-1681.78 985.77 -1687.25 989.281 -1692.72 988.035C-1696.69 987.129 -1699.58 983.953 -1700.37 980.128L-1700.48 979.591L-1700.82 980.028C-1703.18 983.134 -1707.15 984.748 -1711.13 983.842C-1715.11 982.936 -1718 979.757 -1718.78 975.935L-1718.89 975.395L-1719.23 975.834C-1721.59 978.94 -1725.56 980.554 -1729.54 979.648C-1733.52 978.742 -1736.41 975.563 -1737.19 971.742L-1737.3 971.204L-1737.64 971.64C-1740.01 974.744 -1743.98 976.357 -1747.96 975.452C-1753.43 974.205 -1756.84 968.673 -1755.56 963.077C-1754.29 957.481 -1748.82 953.969 -1743.35 955.215C-1739.37 956.121 -1736.49 959.297 -1735.7 963.123L-1735.59 963.658L-1735.25 963.223C-1732.88 960.12 -1728.89 958.509 -1724.93 959.411C-1720.96 960.314 -1718.07 963.493 -1717.29 967.315L-1717.18 967.853L-1716.84 967.417C-1714.47 964.313 -1710.48 962.702 -1706.52 963.605C-1702.55 964.508 -1699.66 967.687 -1698.88 971.508L-1698.77 972.047L-1698.43 971.611C-1696.06 968.507 -1692.08 966.893 -1688.11 967.799Z" stroke="#D54B44" stroke-width="0.5"/>
<path d="M-1669.63 1021.14L-1669.55 1021.29L-1669.39 1021.28L-1664.35 1020.98L-1662.09 1025.49L-1662.02 1025.64L-1661.85 1025.63L-1657.1 1025.35L-1659.07 1028.76L-1663.99 1029.05L-1666.25 1024.54L-1666.32 1024.39L-1666.49 1024.4L-1671.52 1024.7L-1673.79 1020.18L-1673.86 1020.03L-1674.02 1020.04L-1679.07 1020.34L-1681.28 1015.94L-1679.31 1012.53L-1677.18 1016.78L-1677.1 1016.93L-1676.94 1016.92L-1671.89 1016.62L-1669.63 1021.14Z" stroke="#FBBD51" stroke-width="0.5"/>
<path d="M-1772.41 1018.81L-1774.4 1017.66L-1764.62 1000.74L-1762.63 1001.89L-1772.41 1018.81Z" stroke="#4B8D7F" stroke-width="0.5"/>
<path d="M-1757.48 1041.11C-1755.74 1040.28 -1754.4 1040.4 -1753.36 1040.58L-1752.93 1040.66C-1752.5 1040.74 -1752.13 1040.81 -1751.76 1040.81C-1751.44 1040.8 -1751.13 1040.73 -1750.76 1040.58L-1749.26 1043.75C-1750.89 1044.47 -1752.15 1044.36 -1753.15 1044.19L-1753.58 1044.11C-1754.01 1044.02 -1754.38 1043.95 -1754.75 1043.96C-1755.13 1043.97 -1755.51 1044.06 -1755.98 1044.28C-1756.45 1044.51 -1756.76 1044.74 -1757.02 1045.03C-1757.2 1045.24 -1757.34 1045.48 -1757.49 1045.75L-1757.64 1046.03C-1758.18 1047.02 -1758.88 1048.32 -1760.88 1049.26C-1762.63 1050.09 -1763.96 1049.98 -1765 1049.79L-1765.43 1049.72C-1765.86 1049.63 -1766.23 1049.56 -1766.6 1049.57C-1766.99 1049.58 -1767.36 1049.67 -1767.83 1049.89C-1768.31 1050.12 -1768.62 1050.35 -1768.87 1050.64C-1769.05 1050.85 -1769.2 1051.09 -1769.34 1051.36L-1769.5 1051.64C-1770.01 1052.59 -1770.68 1053.83 -1772.51 1054.76L-1774.01 1051.59C-1773.66 1051.4 -1773.41 1051.19 -1773.2 1050.95C-1773.02 1050.74 -1772.87 1050.5 -1772.72 1050.23L-1772.57 1049.96C-1772.04 1048.97 -1771.33 1047.67 -1769.34 1046.72C-1767.59 1045.89 -1766.26 1046.01 -1765.21 1046.19L-1764.78 1046.27C-1764.35 1046.35 -1763.99 1046.42 -1763.61 1046.41C-1763.23 1046.41 -1762.85 1046.31 -1762.38 1046.09C-1761.91 1045.87 -1761.6 1045.63 -1761.35 1045.34C-1761.23 1045.2 -1761.12 1045.05 -1761.02 1044.88L-1760.72 1044.35L-1760.72 1044.35C-1760.19 1043.36 -1759.48 1042.06 -1757.48 1041.11Z" stroke="#1A4B75" stroke-width="0.5"/>
<circle cx="-1687" cy="1059" r="3.75" stroke="#007E93" stroke-width="0.5"/>
</g>
<use xlink:href="#pattern0_890_11141_inner" transform="translate(0 143.29)"/>
<use xlink:href="#pattern0_890_11141_inner" transform="translate(143.29 71.645)"/>
<use xlink:href="#pattern0_890_11141_inner" transform="translate(143.29 214.935)"/>
<use xlink:href="#pattern0_890_11141_inner" transform="translate(286.58 0)"/>
<use xlink:href="#pattern0_890_11141_inner" transform="translate(286.58 143.29)"/>
</pattern></defs>
</svg>
