<svg width="46" height="47" viewBox="0 0 46 47" fill="none" xmlns="http://www.w3.org/2000/svg">
<path d="M28.6897 12.845H17.3103M28.6897 12.845C34.0531 12.845 36.7367 12.845 38.4019 14.512C40.069 16.1772 40.069 18.8608 40.069 24.2243V28.9657C40.069 34.3291 40.069 37.0127 38.4019 38.6779C36.7367 40.345 34.0531 40.345 28.6897 40.345H17.3103C11.9469 40.345 9.26327 40.345 7.5981 38.6779C5.93103 37.0127 5.93103 34.3291 5.93103 28.9657V24.2243C5.93103 18.8608 5.93103 16.1772 7.5981 14.512C9.26327 12.845 11.9469 12.845 17.3103 12.845M28.6897 12.845V11.8967C28.6897 9.21307 28.6897 7.8722 27.8552 7.04151C27.0226 6.20703 25.6836 6.20703 23 6.20703C20.3164 6.20703 18.9755 6.20703 18.1448 7.04151C17.3103 7.8741 17.3103 9.21496 17.3103 11.8967V12.845" stroke="#C7C7C7" stroke-width="2.84483" stroke-linecap="round" stroke-linejoin="round"/>
<path d="M40.069 20.4309C38.057 20.4309 36.1274 19.6317 34.7047 18.209C33.282 16.7863 32.4828 14.8567 32.4828 12.8447M5.93103 32.7585C7.94302 32.7585 9.8726 33.5578 11.2953 34.9805C12.718 36.4032 13.5172 38.3327 13.5172 40.3447M5.93103 20.4309C7.94302 20.4309 9.8726 19.6317 11.2953 18.209C12.718 16.7863 13.5172 14.8567 13.5172 12.8447M40.069 32.7585C38.057 32.7585 36.1274 33.5578 34.7047 34.9805C33.282 36.4032 32.4828 38.3327 32.4828 40.3447M27.7414 21.3792V21.3982M17.7845 23.2758L16.3621 24.6982L17.7845 26.1206L19.2069 24.6982L17.7845 23.2758ZM26.7931 32.3792L23.9483 31.8102L26.2241 29.5344L26.7931 32.3792Z" stroke="#C7C7C7" stroke-width="2.84483" stroke-linecap="round" stroke-linejoin="round"/>
</svg>
