<svg width="18" height="18" viewBox="0 0 18 18" fill="none" xmlns="http://www.w3.org/2000/svg">
<rect width="18" height="18" fill="white"/>
<path fill-rule="evenodd" clip-rule="evenodd" d="M13.5 6.75C14.0739 6.74997 14.6261 6.96924 15.0437 7.36296C15.4613 7.75668 15.7126 8.29508 15.7463 8.868L15.75 9V11.25C15.75 11.73 15.4657 12.1043 15.0885 12.2753L15 12.3105V15C15.0001 15.3784 14.8572 15.7429 14.5999 16.0204C14.3426 16.2979 13.9899 16.4679 13.6125 16.4963L13.5 16.5H4.5C4.12157 16.5001 3.75708 16.3572 3.47959 16.0999C3.2021 15.8426 3.03213 15.4899 3.00375 15.1125L3 15V12.3113C2.79758 12.2406 2.61973 12.1133 2.48768 11.9444C2.35563 11.7755 2.27494 11.5722 2.25525 11.3588L2.25 11.25V9C2.24997 8.42609 2.46924 7.87386 2.86296 7.4563C3.25668 7.03874 3.79508 6.78742 4.368 6.75375L4.5 6.75H13.5ZM13.4498 11.775C13.3334 11.6877 13.1942 11.6361 13.049 11.6265C12.9039 11.6169 12.7591 11.6498 12.6322 11.721L12.5497 11.775L12.3502 11.925C11.9822 12.2012 11.5384 12.3579 11.0785 12.3739C10.6187 12.39 10.1649 12.2648 9.7785 12.015L9.65025 11.925L9.45 11.775C9.33365 11.6877 9.19442 11.6361 9.04927 11.6265C8.90413 11.6169 8.75932 11.6498 8.6325 11.721L8.55 11.775L8.34975 11.925C7.98179 12.201 7.53807 12.3576 7.07838 12.3737C6.61869 12.3898 6.16511 12.2646 5.77875 12.015L5.64975 11.925L5.45025 11.775C5.3339 11.6877 5.19467 11.6361 5.04952 11.6265C4.90438 11.6169 4.75957 11.6498 4.63275 11.721L4.55025 11.775L4.5 11.8125V15H13.5V11.8125L13.4498 11.775ZM13.5 8.25H4.5C4.30109 8.25 4.11032 8.32902 3.96967 8.46967C3.82902 8.61032 3.75 8.80109 3.75 9V10.5037C4.13745 10.2449 4.59569 10.1128 5.06146 10.1255C5.52724 10.1383 5.97756 10.2953 6.35025 10.575L6.54975 10.725C6.67957 10.8224 6.83747 10.875 6.99975 10.875C7.16203 10.875 7.31993 10.8224 7.44975 10.725L7.65 10.575C8.03947 10.2829 8.51317 10.125 9 10.125C9.48683 10.125 9.96053 10.2829 10.35 10.575L10.5503 10.725C10.6801 10.8224 10.838 10.875 11.0002 10.875C11.1625 10.875 11.3204 10.8224 11.4503 10.725L11.6497 10.575C12.0224 10.2953 12.4728 10.1383 12.9385 10.1255C13.4043 10.1128 13.8626 10.2449 14.25 10.5037V9C14.25 8.80109 14.171 8.61032 14.0303 8.46967C13.8897 8.32902 13.6989 8.25 13.5 8.25ZM9.45 1.65C9.75965 1.89267 10.0475 2.16194 10.3102 2.45475C10.7032 2.8965 11.25 3.64125 11.25 4.5C11.25 5.09674 11.0129 5.66903 10.591 6.09099C10.169 6.51295 9.59674 6.75 9 6.75C8.40326 6.75 7.83097 6.51295 7.40901 6.09099C6.98705 5.66903 6.75 5.09674 6.75 4.5C6.75 3.64125 7.2975 2.8965 7.68975 2.45475C7.9525 2.16194 8.24035 1.89267 8.55 1.65C8.67982 1.55263 8.83772 1.5 9 1.5C9.16228 1.5 9.32018 1.55263 9.45 1.65ZM9 3.2505C8.93471 3.31554 8.87143 3.38257 8.81025 3.4515C8.45325 3.8535 8.25 4.23375 8.25 4.5C8.25 4.69891 8.32902 4.88968 8.46967 5.03033C8.61032 5.17098 8.80109 5.25 9 5.25C9.19891 5.25 9.38968 5.17098 9.53033 5.03033C9.67098 4.88968 9.75 4.69891 9.75 4.5C9.75 4.23375 9.5475 3.8535 9.18975 3.4515C9.12857 3.38257 9.06529 3.31554 9 3.2505Z" fill="#007E93"/>
</svg>
