<svg width="18" height="18" viewBox="0 0 18 18" fill="none" xmlns="http://www.w3.org/2000/svg">
<rect width="18" height="18" fill="white"/>
<path d="M2.4 15.0004V15.6004H3.6V15.0004H2.4ZM8.4 15.0004V15.6004H9.6V15.0004H8.4ZM3.6 15.0004V14.4004H2.4V15.0004H3.6ZM8.4 14.4004V15.0004H9.6V14.4004H8.4ZM6 12.0004C6.63652 12.0004 7.24697 12.2532 7.69706 12.7033C8.14714 13.1534 8.4 13.7639 8.4 14.4004H9.6C9.6 13.4456 9.22072 12.5299 8.54558 11.8548C7.87045 11.1797 6.95478 10.8004 6 10.8004V12.0004ZM3.6 14.4004C3.6 13.7639 3.85286 13.1534 4.30294 12.7033C4.75303 12.2532 5.36348 12.0004 6 12.0004V10.8004C5.04522 10.8004 4.12955 11.1797 3.45442 11.8548C2.77928 12.5299 2.4 13.4456 2.4 14.4004H3.6ZM6 4.80039C5.36348 4.80039 4.75303 5.05325 4.30294 5.50333C3.85286 5.95342 3.6 6.56387 3.6 7.20039H4.8C4.8 6.88213 4.92643 6.57691 5.15147 6.35186C5.37652 6.12682 5.68174 6.00039 6 6.00039V4.80039ZM8.4 7.20039C8.4 6.56387 8.14714 5.95342 7.69706 5.50333C7.24697 5.05325 6.63652 4.80039 6 4.80039V6.00039C6.31826 6.00039 6.62348 6.12682 6.84853 6.35186C7.07357 6.57691 7.2 6.88213 7.2 7.20039H8.4ZM6 9.60039C6.63652 9.60039 7.24697 9.34753 7.69706 8.89745C8.14714 8.44736 8.4 7.83691 8.4 7.20039H7.2C7.2 7.51865 7.07357 7.82387 6.84853 8.04892C6.62348 8.27396 6.31826 8.40039 6 8.40039V9.60039ZM6 8.40039C5.68174 8.40039 5.37652 8.27396 5.15147 8.04892C4.92643 7.82387 4.8 7.51865 4.8 7.20039H3.6C3.6 7.83691 3.85286 8.44736 4.30294 8.89745C4.75303 9.34753 5.36348 9.60039 6 9.60039V8.40039ZM1.8 3.60039H16.2V2.40039H1.8V3.60039ZM16.8 4.20039V13.8004H18V4.20039H16.8ZM16.2 14.4004H1.8V15.6004H16.2V14.4004ZM1.2 13.8004V4.20039H0V13.8004H1.2ZM1.8 14.4004C1.64087 14.4004 1.48826 14.3372 1.37574 14.2247C1.26321 14.1121 1.2 13.9595 1.2 13.8004H0C0 14.2778 0.189642 14.7356 0.527208 15.0732C0.864773 15.4107 1.32261 15.6004 1.8 15.6004V14.4004ZM16.8 13.8004C16.8 13.9595 16.7368 14.1121 16.6243 14.2247C16.5117 14.3372 16.3591 14.4004 16.2 14.4004V15.6004C16.6774 15.6004 17.1352 15.4107 17.4728 15.0732C17.8104 14.7356 18 14.2778 18 13.8004H16.8ZM16.2 3.60039C16.3591 3.60039 16.5117 3.6636 16.6243 3.77613C16.7368 3.88865 16.8 4.04126 16.8 4.20039H18C18 3.723 17.8104 3.26516 17.4728 2.9276C17.1352 2.59003 16.6774 2.40039 16.2 2.40039V3.60039ZM1.8 2.40039C1.32261 2.40039 0.864773 2.59003 0.527208 2.9276C0.189642 3.26516 0 3.723 0 4.20039H1.2C1.2 4.04126 1.26321 3.88865 1.37574 3.77613C1.48826 3.6636 1.64087 3.60039 1.8 3.60039V2.40039ZM10.8 7.20039H14.4V6.00039H10.8V7.20039ZM10.8 10.8004H14.4V9.60039H10.8V10.8004Z" fill="#007E93"/>
</svg>
