<svg width="46" height="46" viewBox="0 0 46 46" fill="none" xmlns="http://www.w3.org/2000/svg">
<path d="M39.9779 5.85017C38.7048 4.57853 36.979 3.86426 35.1797 3.86426C33.3803 3.86426 31.6545 4.57853 30.3814 5.85017L7.7138 28.5178C6.94292 29.2878 6.40122 30.257 6.14914 31.3171L4.07242 40.045C4.01619 40.2814 4.02146 40.5283 4.08773 40.7621C4.154 40.9958 4.27906 41.2088 4.45099 41.3805C4.62291 41.5522 4.83596 41.6771 5.06982 41.7431C5.30368 41.8091 5.55056 41.8141 5.7869 41.7576L14.5129 39.679C15.5737 39.4272 16.5435 38.8855 17.3141 38.1143L19.4971 35.9314C19.2222 34.6901 19.1409 33.4138 19.2562 32.1478L15.3019 36.104C14.9036 36.5022 14.4029 36.7829 13.8548 36.9138L7.37621 38.4576L8.91811 31.979C9.04897 31.429 9.32966 30.9283 9.72794 30.53L28.6897 11.5626L34.2655 17.1384L30.4231 20.9809C31.6886 20.8688 32.9638 20.95 34.2048 21.2217L39.9779 15.4486C41.2496 14.1755 41.9638 12.4497 41.9638 10.6503C41.9638 8.85095 41.2496 7.12325 39.9779 5.85017ZM32.3917 7.86241C32.7578 7.49629 33.1925 7.20587 33.6708 7.00773C34.1492 6.80959 34.6619 6.70761 35.1797 6.70761C35.6974 6.70761 36.2101 6.80959 36.6885 7.00773C37.1668 7.20587 37.6015 7.49629 37.9676 7.86241C38.3337 8.22853 38.6241 8.66317 38.8223 9.14152C39.0204 9.61988 39.1224 10.1326 39.1224 10.6503C39.1224 11.1681 39.0204 11.6808 38.8223 12.1592C38.6241 12.6375 38.3337 13.0722 37.9676 13.4383L36.2759 15.1262L30.7 9.55224L32.3917 7.86241ZM25.4219 26.5776C25.5634 27.0679 25.6045 27.5818 25.5428 28.0884C25.481 28.595 25.3177 29.0839 25.0625 29.5259C24.8073 29.9679 24.4656 30.3538 24.0578 30.6606C23.6499 30.9674 23.1844 31.1887 22.689 31.3114L21.5814 31.5864C21.4029 32.7221 21.4068 33.879 21.5928 35.0134L22.6169 35.26C23.1168 35.3804 23.587 35.6012 23.9989 35.909C24.4108 36.2167 24.7559 36.605 25.0131 37.0502C25.2703 37.4955 25.4343 37.9884 25.4951 38.4989C25.5559 39.0095 25.5123 39.5271 25.3669 40.0203L25.0122 41.2171C25.8467 41.9491 26.795 42.5447 27.8286 42.9657L28.7636 41.9814C29.118 41.6087 29.5444 41.3119 30.017 41.1091C30.4895 40.9063 30.9984 40.8018 31.5127 40.8018C32.0269 40.8018 32.5358 40.9063 33.0084 41.1091C33.481 41.3119 33.9074 41.6087 34.2617 41.9814L35.2081 42.979C36.234 42.5606 37.1837 41.9756 38.0188 41.2474L37.6433 39.9464C37.5018 39.4559 37.4607 38.9419 37.5226 38.4352C37.5845 37.9285 37.748 37.4395 38.0034 36.9975C38.2587 36.5555 38.6007 36.1696 39.0087 35.8629C39.4168 35.5562 39.8825 35.335 40.3781 35.2126L41.4838 34.9376C41.6623 33.8019 41.6584 32.645 41.4724 31.5105L40.4483 31.264C39.9486 31.1433 39.4786 30.9224 39.0669 30.6145C38.6551 30.3067 38.3103 29.9184 38.0533 29.4732C37.7963 29.0279 37.6324 28.5351 37.5717 28.0247C37.511 27.5142 37.5547 26.9967 37.7002 26.5036L38.0529 25.3069C37.218 24.5723 36.2669 23.9814 35.2384 23.5583L34.3034 24.5407C33.9491 24.9137 33.5226 25.2107 33.0498 25.4137C32.577 25.6166 32.0679 25.7213 31.5535 25.7213C31.039 25.7213 30.5299 25.6166 30.0571 25.4137C29.5843 25.2107 29.1578 24.9137 28.8035 24.5407L27.859 23.545C26.8272 23.9622 25.879 24.5502 25.0464 25.2765L25.4219 26.5776ZM31.5345 36.104C30.0172 36.104 28.7845 34.8314 28.7845 33.2591C28.7845 31.6888 30.0172 30.4143 31.5345 30.4143C33.0517 30.4143 34.2845 31.6888 34.2845 33.2591C34.2845 34.8314 33.0517 36.104 31.5345 36.104Z" fill="#C7C7C7"/>
</svg>
