<svg width="24" height="24" viewBox="0 0 24 24" fill="none" xmlns="http://www.w3.org/2000/svg">
<g clip-path="url(#clip0_357_8396)">
<rect y="6.10352e-05" width="24" height="24" rx="4" fill="white"/>
<path fill-rule="evenodd" clip-rule="evenodd" d="M6 12.0001C6 9.6033 6 8.40492 6.57113 7.54176C6.82616 7.15632 7.15626 6.82623 7.5417 6.57119C8.40486 6.00006 9.60324 6.00006 12 6.00006C14.3968 6.00006 15.5951 6.00006 16.4583 6.57119C16.8437 6.82623 17.1738 7.15632 17.4289 7.54176C18 8.40492 18 9.6033 18 12.0001C18 14.3968 18 15.5952 17.4289 16.4584C17.1738 16.8438 16.8437 17.1739 16.4583 17.4289C15.5951 18.0001 14.3968 18.0001 12 18.0001C9.60324 18.0001 8.40486 18.0001 7.5417 17.4289C7.15626 17.1739 6.82616 16.8438 6.57113 16.4584C6 15.5952 6 14.3968 6 12.0001ZM15.1062 12.0002C15.1062 13.7158 13.7154 15.1065 11.9999 15.1065C10.2843 15.1065 8.89362 13.7158 8.89362 12.0002C8.89362 10.2847 10.2843 8.89394 11.9999 8.89394C13.7154 8.89394 15.1062 10.2847 15.1062 12.0002ZM11.9999 14.0555C13.135 14.0555 14.0552 13.1353 14.0552 12.0002C14.0552 10.8651 13.135 9.94488 11.9999 9.94488C10.8648 9.94488 9.94456 10.8651 9.94456 12.0002C9.94456 13.1353 10.8648 14.0555 11.9999 14.0555ZM15.2288 9.46776C15.632 9.46776 15.9587 9.14098 15.9587 8.73788C15.9587 8.33477 15.632 8.008 15.2288 8.008C14.8257 8.008 14.499 8.33477 14.499 8.73788C14.499 9.14098 14.8257 9.46776 15.2288 9.46776Z" fill="#007E93"/>
</g>
<defs>
<clipPath id="clip0_357_8396">
<rect y="6.10352e-05" width="24" height="24" rx="12" fill="white"/>
</clipPath>
</defs>
</svg>
