<svg width="24" height="25" viewBox="0 0 24 25" fill="none" xmlns="http://www.w3.org/2000/svg">
<g clip-path="url(#clip0_272_1641)">
<rect y="0.880859" width="24" height="24" rx="4" fill="white"/>
<path d="M6 8.49455C6 8.10975 6.13514 7.79228 6.40541 7.54217C6.67567 7.29205 7.02703 7.16699 7.45946 7.16699C7.88417 7.16699 8.2278 7.29012 8.49035 7.5364C8.76061 7.79037 8.89575 8.12129 8.89575 8.52919C8.89575 8.89859 8.76448 9.20643 8.50193 9.45271C8.23166 9.70667 7.87645 9.83366 7.43629 9.83366H7.42471C7 9.83366 6.65637 9.70667 6.39382 9.45271C6.13127 9.19874 6 8.87935 6 8.49455ZM6.15058 18.5956V10.8842H8.72201V18.5956H6.15058ZM10.1467 18.5956H12.7181V14.2896C12.7181 14.0203 12.749 13.8125 12.8108 13.6663C12.9189 13.4046 13.083 13.1833 13.3031 13.0025C13.5232 12.8216 13.7992 12.7312 14.1313 12.7312C14.9961 12.7312 15.4286 13.3122 15.4286 14.4743V18.5956H18V14.1742C18 13.0352 17.7297 12.1713 17.1892 11.5826C16.6486 10.9938 15.9344 10.6995 15.0463 10.6995C14.0502 10.6995 13.2741 11.1266 12.7181 11.9808V12.0039H12.7066L12.7181 11.9808V10.8842H10.1467C10.1622 11.1304 10.1699 11.8962 10.1699 13.1814C10.1699 14.4666 10.1622 16.2714 10.1467 18.5956Z" fill="#007E93"/>
</g>
<defs>
<clipPath id="clip0_272_1641">
<rect y="0.880859" width="24" height="24" rx="12" fill="white"/>
</clipPath>
</defs>
</svg>
