<svg width="86" height="59" viewBox="0 0 86 59" fill="none" xmlns="http://www.w3.org/2000/svg">
<g clip-path="url(#clip0_637_1042)">
<path d="M24.2081 19.7339L19.3882 16.4827V16.4629L19.3734 16.4728L19.3635 16.4629V16.4827L14.5387 19.7339L9.69411 16.4629L4.84953 19.7339L0 16.4629V21.6291L4.84953 24.9001L9.69411 21.6291L14.5387 24.9001L19.3734 21.639L24.2081 24.9001L29.0527 21.6291V16.4629L24.2081 19.7339Z" fill="white"/>
<path d="M29.0527 28.373H0V32.8316H29.0527V28.373Z" fill="white"/>
<path d="M25.1484 5.17969C23.5797 5.17969 22.2288 6.10506 21.6053 7.44115C20.9867 6.10506 19.6308 5.17969 18.0671 5.17969C16.5034 5.17969 15.1475 6.10506 14.524 7.44115C13.9054 6.10506 12.5495 5.17969 10.9858 5.17969C9.42207 5.17969 8.06618 6.10506 7.44267 7.44115C6.81916 6.10506 5.46822 5.17969 3.89955 5.17969C1.742 5.17969 -0.00482178 6.92651 -0.00482178 9.08405C-0.00482178 11.2416 1.742 12.9884 3.89955 12.9884C5.46822 12.9884 6.81916 12.0631 7.44267 10.727C8.06124 12.0631 9.41712 12.9884 10.9858 12.9884C12.5545 12.9884 13.9054 12.0631 14.524 10.727C15.1425 12.0631 16.4984 12.9884 18.0671 12.9884C19.6358 12.9884 20.9867 12.0631 21.6053 10.727C22.2288 12.0631 23.5797 12.9884 25.1484 12.9884C27.306 12.9884 29.0528 11.2416 29.0528 9.08405C29.0528 6.92651 27.306 5.17969 25.1484 5.17969Z" fill="white"/>
<path d="M7.2644 36.3105C9.80298 36.3105 11.1886 37.325 12.203 38.0623C12.9997 38.6413 13.4352 38.9629 14.5288 38.9629C15.6224 38.9629 16.0579 38.6413 16.8546 38.0623C17.8641 37.32 19.2546 36.3105 21.7932 36.3105C24.3318 36.3105 25.7174 37.325 26.7318 38.0623C27.5285 38.6413 27.964 38.9629 29.0576 38.9629V43.3869C26.519 43.3869 25.1334 42.3725 24.119 41.6351C23.3223 41.0562 22.8868 40.7345 21.7932 40.7345C20.6996 40.7345 20.2592 41.0562 19.4674 41.6351C18.453 42.3774 17.0674 43.3869 14.5288 43.3869C11.9902 43.3869 10.6046 42.3725 9.59019 41.6351C8.79349 41.0562 8.35802 40.7345 7.2644 40.7345C6.17078 40.7345 5.73036 41.0562 4.9386 41.6351C3.92416 42.3774 2.53858 43.3869 0 43.3869V38.9629C1.09362 38.9629 1.53404 38.6413 2.3258 38.0623C3.34024 37.32 4.72582 36.3105 7.2644 36.3105Z" fill="white"/>
<path d="M36.0549 0.162109H42.4236V18.6547H49.3169V24.3702H36.0549V0.162109Z" fill="white"/>
<path d="M65.7011 22.6743C62.4797 25.3416 57.0066 26.0344 53.7852 22.3626C49.1435 17.2013 51.8453 7.29441 59.4314 7.25977C61.8562 7.25977 63.0339 8.02183 63.9692 8.99174V7.77936H69.8232V19.2797H71.0703V24.5102H69.5461C68.0566 24.5102 66.6364 23.8521 65.7011 22.6743ZM60.7131 18.8986H60.9209C63.0339 18.8986 64.0038 17.9287 64.0038 15.9889C64.0038 14.0491 62.9993 13.0099 60.9555 13.0099H60.7477C58.6347 13.0099 57.6648 13.9798 57.6648 15.9196C57.6648 17.8595 58.6693 18.8986 60.7131 18.8986Z" fill="white"/>
<path d="M76.2663 17.6554V12.9791H73.7722V7.78312H76.2663V2.93359H82.155V7.78312H86V12.9791H82.155V19.2142L86 17.6554V23.3709C86 23.3709 83.402 24.7565 81.5315 24.7565C76.7859 24.7565 76.2663 21.6043 76.2663 17.6554Z" fill="white"/>
<path d="M38.1283 47.8915C35.2185 44.6007 35.3917 38.0192 38.5093 35.1788C41.6615 31.888 49.5593 31.6802 52.9193 35.1095C55.6905 37.7767 56.1754 41.7603 54.9631 45.6399C54.4435 47.1641 53.5428 48.7575 52.1573 50.7319L47.0306 57.7984H39.8256L46.0261 49.9699C44.398 50.4202 40.6916 50.8012 38.1283 47.8915ZM45.7143 44.9125H45.9221C48.2776 44.9125 49.3515 43.8387 49.3515 41.691C49.3515 39.5434 48.243 38.4003 45.9914 38.4003H45.7489C43.4281 38.4003 42.3543 39.4741 42.3543 41.6217C42.3543 43.7694 43.4627 44.9125 45.7143 44.9125Z" fill="white"/>
<path d="M61.3316 54.9222C59.565 52.636 58.8375 49.8648 58.8375 45.708C58.8375 41.5513 59.565 38.7455 61.3316 36.4593C63.1328 34.0345 65.7308 32.6836 68.6059 32.6836C71.4809 32.6836 74.0789 33.9999 75.9494 36.4593C77.6814 38.7801 78.4088 41.5513 78.4088 45.708C78.4088 49.8648 77.6814 52.6013 75.9494 54.9222C74.1135 57.3469 71.5156 58.6979 68.6059 58.6979C65.6961 58.6979 63.1328 57.3469 61.3316 54.9222ZM68.5366 52.7052H68.7444C71.8273 52.7052 72.3469 50.2805 72.3469 45.7773C72.3469 41.2742 71.8273 38.8148 68.7791 38.8148H68.5019C65.419 38.8148 64.9341 41.2742 64.9341 45.7773C64.9341 50.2805 65.419 52.7052 68.5366 52.7052Z" fill="white"/>
</g>
<defs>
<clipPath id="clip0_637_1042">
<rect width="86" height="58.5358" fill="white" transform="translate(0 0.162109)"/>
</clipPath>
</defs>
</svg>
