<svg width="37" height="37" viewBox="0 0 37 37" fill="none" xmlns="http://www.w3.org/2000/svg">
<rect x="0.666748" y="0.380859" width="36" height="36" rx="18" fill="#006E80"/>
<path d="M16.4167 14.2863V24.9775M20.9167 11.7663V22.4575M11.9167 15.8253C11.9167 14.68 11.9167 14.1078 12.2115 13.774C12.3157 13.6548 12.4425 13.5603 12.5842 13.495C13.6462 13.0053 15.0382 14.2945 16.1617 14.2548C16.3102 14.2493 16.457 14.2288 16.602 14.1933C18.24 13.792 19.266 11.8833 20.9505 11.6508C21.9157 11.5158 22.9755 12.0993 23.8785 12.4113C24.621 12.6678 24.9922 12.796 25.2045 13.1013C25.4167 13.4065 25.4167 13.813 25.4167 14.623V20.9395C25.4167 22.084 25.4167 22.657 25.122 22.9908C25.0185 23.1085 24.8915 23.2033 24.7492 23.269C23.6872 23.7588 22.2952 22.4703 21.1717 22.51C21.0234 22.5157 20.8759 22.5361 20.7315 22.5708C19.0935 22.972 18.0675 24.8808 16.383 25.114C15.4222 25.2475 12.7477 24.5515 12.129 23.6628C11.9167 23.3575 11.9167 22.9525 11.9167 22.141V15.8253Z" stroke="#FEFEFF" stroke-width="1.125" stroke-linecap="round" stroke-linejoin="round"/>
</svg>
