<svg width="18" height="18" viewBox="0 0 18 18" fill="none" xmlns="http://www.w3.org/2000/svg">
<rect width="18" height="18" fill="white"/>
<path d="M11.6999 10.8916C9.90365 12.7816 5.3219 8.24109 7.1249 6.34359C8.2259 5.18484 6.9824 3.86109 6.2939 2.88684C5.00165 1.06059 2.1659 3.58209 2.2514 5.18634C2.52365 10.2458 7.9964 16.2413 13.2959 15.7178C14.9534 15.5543 16.8584 12.5603 14.9572 11.4661C14.0062 10.9186 12.7004 9.83859 11.6999 10.8908M10.4999 2.25009C11.8923 2.25009 13.2276 2.80321 14.2122 3.78777C15.1968 4.77234 15.7499 6.1077 15.7499 7.50009M10.4999 5.25009C11.0966 5.25009 11.6689 5.48714 12.0909 5.90909C12.5129 6.33105 12.7499 6.90335 12.7499 7.50009" stroke="#007E93" stroke-width="1.125" stroke-linecap="round" stroke-linejoin="round"/>
</svg>
