<svg width="36" height="37" viewBox="0 0 36 37" fill="none" xmlns="http://www.w3.org/2000/svg">
<rect y="0.380859" width="36" height="36" rx="18" fill="#006E80"/>
<path d="M14.9119 15.8901C14.9103 15.9264 14.9162 15.9627 14.9292 15.9967C14.9422 16.0306 14.962 16.0616 14.9874 16.0876C15.0128 16.1136 15.0433 16.1342 15.0769 16.148C15.1105 16.1618 15.1466 16.1686 15.183 16.168H16.1111C16.2664 16.168 16.3901 16.0409 16.4104 15.8867C16.5116 15.1487 17.0179 14.611 17.9201 14.611C18.6919 14.611 19.3984 14.9969 19.3984 15.925C19.3984 16.6394 18.9776 16.9679 18.3127 17.4674C17.5556 18.0175 16.956 18.6599 16.9987 19.7027L17.0021 19.9469C17.0033 20.0207 17.0334 20.0911 17.0861 20.1428C17.1387 20.1946 17.2095 20.2236 17.2834 20.2236H18.1957C18.2703 20.2236 18.3419 20.194 18.3946 20.1412C18.4474 20.0885 18.477 20.017 18.477 19.9424V19.8242C18.477 19.0165 18.7841 18.7814 19.6132 18.1525C20.2984 17.6316 21.0127 17.0534 21.0127 15.8395C21.0127 14.1396 19.5772 13.3184 18.0056 13.3184C16.5802 13.3184 15.0187 13.9821 14.9119 15.8901ZM16.6635 22.3735C16.6635 22.9731 17.1416 23.4164 17.7997 23.4164C18.4849 23.4164 18.9562 22.9731 18.9562 22.3735C18.9562 21.7525 18.4837 21.316 17.7986 21.316C17.1416 21.316 16.6635 21.7525 16.6635 22.3735Z" fill="white"/>
</svg>
