<svg width="46" height="46" viewBox="0 0 46 46" fill="none" xmlns="http://www.w3.org/2000/svg">
<g clip-path="url(#clip0_781_1803)">
<path d="M23.0065 5.31755V13.9658M12.479 25.0558V43.7894M23 36.6399V43.9259M33.521 25.0558V43.7894M23.2049 8.80937C26.1147 9.02721 28.732 9.02721 31.6451 8.80937C31.9084 6.40346 31.9084 4.22514 31.6451 1.82248C28.8358 1.60735 26.0141 1.60735 23.2049 1.82248C22.9406 4.14395 22.9406 6.4879 23.2049 8.80937ZM12.4075 26.197C9.9756 26.2522 8.45727 26.327 5.96683 26.418C4.14289 26.4863 2.59855 27.8031 2.35146 29.601C1.70446 34.3445 1.70446 35.6548 2.35146 40.3983C2.59855 42.1963 4.13963 43.513 5.96683 43.5813C18.2565 44.0397 27.7403 44.0397 40.0332 43.5813C41.8572 43.5098 43.4015 42.1963 43.6454 40.3983C44.2956 35.6548 44.2956 34.3445 43.6454 29.601C43.4015 27.8031 41.8572 26.4863 40.0365 26.418C37.5428 26.327 36.0375 26.2522 33.6055 26.197C33.5542 25.1755 33.4925 24.1545 33.4202 23.1343C32.8415 10.9259 13.1748 10.8934 12.5961 23.1148C12.5224 24.1704 12.4574 25.1977 12.4075 26.197Z" stroke="#C7C7C7" stroke-width="3.25123" stroke-linecap="round" stroke-linejoin="round"/>
<path d="M23 27.9691C25.4807 27.9691 26.8755 26.5808 26.8755 24.1164C26.8755 21.6519 25.4775 20.2637 23 20.2637C20.5194 20.2637 19.1246 21.6519 19.1246 24.1164C19.1246 26.5808 20.5194 27.9691 23 27.9691Z" stroke="#C7C7C7" stroke-width="3.25123" stroke-linecap="round" stroke-linejoin="round"/>
</g>
<defs>
<clipPath id="clip0_781_1803">
<rect width="45.5172" height="45.5172" fill="white" transform="translate(0.241394 0.0341797)"/>
</clipPath>
</defs>
</svg>
