<svg width="15" height="15" viewBox="0 0 15 15" fill="none" xmlns="http://www.w3.org/2000/svg">
<g clip-path="url(#clip0_799_5907)">
<path d="M7.485 1.77155V4.61505M4.02362 8.26137V14.4209M7.48286 12.0702V14.4658M10.9421 8.26137V14.4209M7.55021 2.91964C8.50695 2.99126 9.36749 2.99126 10.3253 2.91964C10.4119 2.12859 10.4119 1.41237 10.3253 0.622385C9.40162 0.551653 8.47389 0.551653 7.55021 0.622385C7.46332 1.38567 7.46332 2.15635 7.55021 2.91964ZM4.0001 8.63658C3.2005 8.65476 2.70128 8.67934 1.88244 8.70927C1.28274 8.73172 0.774969 9.16466 0.693726 9.75581C0.480998 11.3155 0.480998 11.7463 0.693726 13.3059C0.774969 13.8971 1.28167 14.33 1.88244 14.3525C5.92321 14.5032 9.04145 14.5032 13.0833 14.3525C13.683 14.3289 14.1908 13.8971 14.2709 13.3059C14.4847 11.7463 14.4847 11.3155 14.2709 9.75581C14.1908 9.16466 13.683 8.73172 13.0844 8.70927C12.2644 8.67934 11.7695 8.65476 10.9699 8.63658C10.953 8.30072 10.9327 7.96504 10.909 7.6296C10.7187 3.61555 4.25238 3.60486 4.0621 7.62318C4.03787 7.97025 4.01649 8.30805 4.0001 8.63658Z" stroke="#007E93" stroke-width="1.06899" stroke-linecap="round" stroke-linejoin="round"/>
<path d="M7.48297 9.21905C8.29861 9.21905 8.75721 8.76259 8.75721 7.9523C8.75721 7.142 8.29754 6.68555 7.48297 6.68555C6.66734 6.68555 6.20874 7.142 6.20874 7.9523C6.20874 8.76259 6.66734 9.21905 7.48297 9.21905Z" stroke="#007E93" stroke-width="1.06899" stroke-linecap="round" stroke-linejoin="round"/>
</g>
<defs>
<clipPath id="clip0_799_5907">
<rect width="14.9658" height="14.9658" fill="white" transform="translate(0 0.0341797)"/>
</clipPath>
</defs>
</svg>
