<svg width="24" height="24" viewBox="0 0 24 24" fill="none" xmlns="http://www.w3.org/2000/svg">
<g clip-path="url(#clip0_357_8395)">
<rect y="6.10352e-05" width="24" height="24" rx="4" fill="white"/>
<path d="M14.018 7.1343V7.13214H14.5807L14.7863 7.1732C14.9234 7.19986 15.0478 7.23479 15.1596 7.27802C15.2714 7.32124 15.3796 7.37167 15.4842 7.4293C15.5888 7.48692 15.6837 7.54564 15.7688 7.60543C15.8532 7.6645 15.929 7.72717 15.996 7.79344C16.0624 7.86044 16.1659 7.87773 16.3066 7.84531C16.4473 7.81289 16.5987 7.76787 16.761 7.71024C16.9234 7.65261 17.0839 7.58778 17.2426 7.51574C17.4013 7.4437 17.4979 7.39796 17.5326 7.37851C17.5665 7.35835 17.5845 7.34754 17.5867 7.34609L17.5888 7.34285L17.5996 7.33745L17.6105 7.33204L17.6213 7.32664L17.6321 7.32124L17.6343 7.318L17.6375 7.31584L17.6408 7.31368L17.6429 7.31043L17.6537 7.30719L17.6646 7.30503L17.6624 7.32124L17.6592 7.33745L17.6537 7.35366L17.6483 7.36986L17.6429 7.38067L17.6375 7.39148L17.6321 7.40768C17.6285 7.41849 17.6249 7.43289 17.6213 7.45091C17.6177 7.46892 17.5834 7.54095 17.5185 7.66702C17.4536 7.79309 17.3724 7.92095 17.275 8.05062C17.1776 8.18028 17.0904 8.27825 17.0132 8.34453C16.9353 8.41152 16.8837 8.45835 16.8584 8.485C16.8332 8.51237 16.8025 8.53758 16.7665 8.56064L16.7124 8.5963L16.7015 8.6017L16.6907 8.60711L16.6886 8.61035L16.6853 8.61251L16.6821 8.61467L16.6799 8.61791L16.6691 8.62331L16.6583 8.62872L16.6561 8.63196L16.6528 8.63412L16.6496 8.63628L16.6474 8.63952L16.6453 8.64276L16.642 8.64493L16.6388 8.64709L16.6366 8.65033H16.6907L16.9937 8.58549C17.1957 8.54227 17.3886 8.49005 17.5726 8.42881L17.8647 8.33156L17.8972 8.32076L17.9134 8.31535L17.9243 8.30995L17.9351 8.30455L17.9459 8.29915L17.9567 8.29374L17.9784 8.2905L18 8.28834V8.30995L17.9946 8.31211L17.9892 8.31535L17.987 8.3186L17.9838 8.32076L17.9805 8.32292L17.9784 8.32616L17.9762 8.3294L17.9729 8.33156L17.9697 8.33372L17.9675 8.33697L17.9654 8.34021L17.9621 8.34237L17.9567 8.35317L17.9513 8.36398L17.9481 8.36614C17.9466 8.3683 17.9008 8.42953 17.8106 8.54984C17.7205 8.67086 17.6718 8.73208 17.6646 8.73353C17.6574 8.73569 17.6472 8.7465 17.6343 8.76595C17.622 8.78611 17.5455 8.86644 17.4049 9.00691C17.2642 9.14739 17.1264 9.27236 16.9915 9.38187C16.8559 9.49209 16.7874 9.62751 16.7859 9.78816C16.7838 9.94808 16.7755 10.1289 16.761 10.3306C16.7466 10.5323 16.7196 10.7502 16.6799 10.9843C16.6402 11.2185 16.5789 11.4832 16.4959 11.7786C16.413 12.0739 16.312 12.3621 16.193 12.643C16.0739 12.9239 15.9495 13.1761 15.8197 13.3994C15.6898 13.6227 15.5708 13.8118 15.4626 13.9667C15.3544 14.1216 15.2444 14.2674 15.1326 14.4043C15.0207 14.5412 14.8794 14.6954 14.7084 14.8668C14.5367 15.0375 14.4429 15.1312 14.4271 15.1477C14.4105 15.1636 14.3398 15.2227 14.215 15.325C14.0909 15.428 13.9574 15.531 13.8146 15.634C13.6725 15.7363 13.5419 15.8217 13.4229 15.8901C13.3039 15.9585 13.1603 16.0367 12.9922 16.1246C12.8249 16.2132 12.6438 16.2953 12.4491 16.3709C12.2543 16.4466 12.0487 16.5168 11.8323 16.5816C11.6159 16.6465 11.4067 16.6969 11.2047 16.7329C11.0027 16.7689 10.7737 16.7996 10.5176 16.8248L10.1335 16.8626V16.868H9.43012V16.8626L9.33814 16.8572C9.27683 16.8536 9.22633 16.85 9.18665 16.8464C9.14699 16.8428 8.99729 16.823 8.7376 16.7869C8.47791 16.7509 8.27412 16.7149 8.12624 16.6789C7.97837 16.6429 7.75834 16.5744 7.46619 16.4736C7.17403 16.3727 6.92408 16.2708 6.71632 16.1678C6.50929 16.0655 6.37944 16.0007 6.32678 15.9733C6.27484 15.9466 6.21641 15.9135 6.15149 15.8739L6.0541 15.8144L6.05195 15.8112L6.04869 15.809L6.04545 15.8069L6.04328 15.8036L6.03246 15.7982L6.02164 15.7928L6.01949 15.7896L6.01623 15.7874L6.01298 15.7853L6.01082 15.782L6.00867 15.7788L6.00541 15.7766H6V15.755L6.01082 15.7572L6.02164 15.7604L6.07033 15.7658C6.1028 15.7694 6.19117 15.7748 6.33544 15.782C6.47972 15.7892 6.633 15.7892 6.79531 15.782C6.95762 15.7748 7.12354 15.7586 7.29306 15.7334C7.46258 15.7082 7.66276 15.665 7.8936 15.6037C8.12444 15.5425 8.33653 15.4697 8.52986 15.3855C8.72246 15.3005 8.85952 15.2371 8.94104 15.1953C9.02183 15.1542 9.14518 15.0779 9.31109 14.9662L9.55996 14.7987L9.56213 14.7955L9.56537 14.7933L9.56863 14.7912L9.57078 14.7879L9.57295 14.7847L9.57619 14.7825L9.57945 14.7803L9.58161 14.7771L9.59243 14.7739L9.60325 14.7717L9.60541 14.7609L9.60866 14.7501L9.61191 14.7479L9.61407 14.7447L9.5275 14.7393C9.4698 14.7357 9.41389 14.7321 9.35978 14.7285C9.30568 14.7249 9.22092 14.7087 9.1055 14.6799C8.99009 14.651 8.86565 14.6078 8.73219 14.5502C8.59874 14.4926 8.46889 14.4241 8.34265 14.3449C8.21642 14.2656 8.12516 14.1997 8.06889 14.1471C8.01335 14.0953 7.94121 14.0218 7.85248 13.9267C7.76448 13.8309 7.68801 13.7326 7.62308 13.6317C7.55816 13.5309 7.49613 13.4145 7.43698 13.2827L7.34716 13.086L7.34175 13.0698L7.33634 13.0536L7.33309 13.0428L7.33093 13.032L7.34716 13.0342L7.36339 13.0374L7.48242 13.0536C7.56177 13.0644 7.68621 13.068 7.85573 13.0644C8.02525 13.0608 8.14247 13.0536 8.20739 13.0428C8.27232 13.032 8.312 13.0248 8.32642 13.0212L8.34806 13.0158L8.37511 13.0104L8.40216 13.005L8.40433 13.0017L8.40757 12.9996L8.41083 12.9974L8.41298 12.9942L8.39134 12.9888L8.3697 12.9834L8.34806 12.978L8.32642 12.9726L8.30478 12.9672C8.29036 12.9636 8.26511 12.9564 8.22904 12.9456C8.19297 12.9348 8.09559 12.8951 7.93688 12.8267C7.77819 12.7583 7.65194 12.6916 7.55816 12.6268C7.46415 12.5618 7.3745 12.4907 7.28981 12.4139C7.20541 12.3361 7.11272 12.236 7.01172 12.1135C6.91073 11.9911 6.82057 11.8488 6.74121 11.6867C6.66186 11.5246 6.60235 11.3697 6.56267 11.2221C6.52315 11.0753 6.49708 10.9252 6.48477 10.7736L6.46528 10.5467L6.4761 10.5489L6.48693 10.5521L6.49775 10.5575L6.50857 10.5629L6.51939 10.5683L6.53021 10.5737L6.69793 10.6494C6.80975 10.6998 6.94861 10.743 7.11452 10.779C7.28044 10.815 7.37962 10.8349 7.41208 10.8385L7.46078 10.8439H7.55816L7.55601 10.8406L7.55275 10.8385L7.5495 10.8363L7.54734 10.8331L7.54519 10.8298L7.54193 10.8277L7.53868 10.8255L7.53652 10.8223L7.5257 10.8169L7.51488 10.8114L7.51272 10.8082L7.50947 10.806L7.50622 10.8039L7.50406 10.8006L7.49324 10.7952L7.48242 10.7898L7.48026 10.7866C7.4781 10.7851 7.44708 10.7621 7.3872 10.7174C7.32804 10.6721 7.26601 10.6134 7.20108 10.5413C7.13616 10.4693 7.07124 10.3936 7.00631 10.3144C6.94127 10.235 6.88334 10.15 6.83318 10.0605C6.78269 9.97042 6.72931 9.85587 6.67304 9.71684C6.6175 9.57853 6.5753 9.43914 6.54644 9.29866C6.51759 9.15819 6.50136 9.01952 6.49775 8.88265C6.49414 8.74577 6.49775 8.62872 6.50857 8.53147C6.51939 8.43422 6.54103 8.32436 6.57349 8.2019C6.60595 8.07944 6.65285 7.94977 6.71416 7.81289L6.80613 7.60759L6.81154 7.59138L6.81695 7.57517L6.82021 7.57301L6.82236 7.56977L6.82453 7.56653L6.82777 7.56437L6.83103 7.56653L6.83318 7.56977L6.83535 7.57301L6.83859 7.57517L6.84185 7.57733L6.844 7.58057L6.84617 7.58382L6.84941 7.58598L6.85482 7.59678L6.86023 7.60759L6.86349 7.60975L6.86564 7.61299L7.01172 7.77507C7.10911 7.88313 7.22453 8.0038 7.35798 8.13706C7.49144 8.27033 7.56538 8.33948 7.5798 8.34453C7.59424 8.35029 7.61226 8.36685 7.6339 8.39424C7.65555 8.42089 7.72769 8.48465 7.85032 8.58549C7.97296 8.68634 8.13346 8.80341 8.33183 8.93668C8.53021 9.06994 8.75023 9.20141 8.99188 9.33108C9.23355 9.46075 9.49324 9.57781 9.77096 9.68226C10.0487 9.78672 10.2435 9.85515 10.3553 9.88757C10.4671 9.91999 10.6583 9.96141 10.9288 10.0118C11.1993 10.0623 11.4031 10.0947 11.5401 10.1091C11.6772 10.1235 11.771 10.1318 11.8215 10.1339L11.8972 10.1361L11.8951 10.1199L11.8918 10.1037L11.8702 9.96861C11.8557 9.87857 11.8485 9.7525 11.8485 9.59042C11.8485 9.42833 11.8611 9.27886 11.8864 9.14198C11.9116 9.00511 11.9495 8.86644 12 8.72597C12.0505 8.58549 12.0999 8.47275 12.1482 8.38775C12.1973 8.30347 12.2615 8.2073 12.3408 8.09924C12.4202 7.99119 12.523 7.87953 12.6492 7.76427C12.7755 7.64901 12.9197 7.54635 13.0821 7.45631C13.2444 7.36627 13.3941 7.29782 13.5311 7.251C13.6682 7.20418 13.7836 7.17356 13.8774 7.15916C13.9711 7.14475 14.018 7.13646 14.018 7.1343Z" fill="#007E93"/>
</g>
<defs>
<clipPath id="clip0_357_8395">
<rect y="6.10352e-05" width="24" height="24" rx="12" fill="white"/>
</clipPath>
</defs>
</svg>
