<svg width="24" height="25" viewBox="0 0 24 25" fill="none" xmlns="http://www.w3.org/2000/svg">
<g clip-path="url(#clip0_272_1642)">
<rect y="0.880859" width="24" height="24" rx="4" fill="white"/>
<path d="M12.2923 17.5337L9.58421 17.483C8.70738 17.4654 7.82837 17.5006 6.96873 17.3179C5.66102 17.0449 5.56837 15.7063 5.47143 14.5834C5.33786 13.0049 5.38957 11.3977 5.64164 9.8323C5.78395 8.95395 6.34397 8.42984 7.21002 8.3728C10.1336 8.16582 13.0766 8.19035 15.9937 8.28691C16.3018 8.29577 16.612 8.34415 16.9157 8.39922C18.4153 8.66784 18.4519 10.1848 18.5491 11.4617C18.646 12.7519 18.6051 14.0487 18.4198 15.33C18.2711 16.391 17.9867 17.2807 16.7865 17.3665C15.2826 17.4789 13.8133 17.5693 12.3052 17.5405C12.3053 17.5337 12.2966 17.5337 12.2923 17.5337ZM10.7002 14.8477C11.8335 14.1827 12.9451 13.5289 14.0719 12.8684C12.9365 12.2034 11.827 11.5496 10.7002 10.8891V14.8477Z" fill="#007E93"/>
</g>
<defs>
<clipPath id="clip0_272_1642">
<rect y="0.880859" width="24" height="24" rx="12" fill="white"/>
</clipPath>
</defs>
</svg>
